<svg id="Calque_1" data-name="Calque 1" xmlns="http://www.w3.org/2000/svg" viewBox="0 0 157.1 63.4"><defs><style>.cls-1{fill:#fff;}</style></defs><title>logo_darkback</title><path class="cls-1" d="M70,24.63c0-3.81,2.09-6.33,6.19-6.33H91.13L92.93,28H81.48c-.72,0-.94.36-.94,1V60c0,.65.22,1,.94,1h4.75V40.4H96.38V70.5H78.17c-6,0-8.14-2.3-8.14-8.06Z" transform="translate(-70.03 -18.3)"/><path class="cls-1" d="M100.48,18.3h10.45V70.5H100.48Z" transform="translate(-70.03 -18.3)"/><path class="cls-1" d="M117.84,70.5,116,60.78H127.2c.93,0,1.22-.29,1.22-1.08V50.2c0-1.44-.5-1.52-1.94-1.52h-5.4c-3.1,0-5.84-.72-5.84-5.9V25.07c0-4.11,2.16-6.77,7.06-6.77h14.4L138.5,28H126.69c-.86,0-1.29.36-1.29,1.15v9.5c0,1.08.5,1.37,1.58,1.37h6.55c3.32,0,5.19,1.44,5.19,5.33V62.58c0,5.76-2,7.92-8,7.92Z" transform="translate(-70.03 -18.3)"/><path class="cls-1" d="M143,18.3h20.31l1.8,9.72H153.76V40.4h8.64v9h-8.64V60.78h11l-1.8,9.72H143Z" transform="translate(-70.03 -18.3)"/><path class="cls-1" d="M195.6,49.26a4.52,4.52,0,0,1-4.68,4.61l5.47,16.63h-10.8l-5-16.63h-1.37V70.5H168.74V18.3h19.8c4.9,0,7.06,2.66,7.06,6.77ZM179.18,27.44v18h5.11c.79,0,1-.28,1-1.08V28.52c0-.65-.29-1.08-1-1.08Z" transform="translate(-70.03 -18.3)"/><path class="cls-1" d="M227.13,63.08c0,4-1.65,7.42-7.49,7.42H207.55c-5.84,0-7.49-3.45-7.49-7.42v-38c0-4.11,2.16-6.77,7.05-6.77h13c4.89,0,7,2.66,7,6.77ZM211.51,27.44c-.72,0-.94.36-.94,1V60.28c0,.79.14,1.08,1,1.08h4c.86,0,1-.29,1-1.08V28.45c0-.65-.22-1-.94-1Z" transform="translate(-70.03 -18.3)"/><rect class="cls-1" x="0.5" y="57.58" width="156.24" height="5.82"/></svg>